<?xml version="1.0" encoding="utf-8" standalone="no"?>
<!DOCTYPE svg PUBLIC "-//W3C//DTD SVG 1.1//EN"
  "http://www.w3.org/Graphics/SVG/1.1/DTD/svg11.dtd">
<svg xmlns:xlink="http://www.w3.org/1999/xlink" width="518.740157pt" height="425.19685pt" viewBox="0 0 518.740157 425.19685" xmlns="http://www.w3.org/2000/svg" version="1.1">
 <metadata>
  <rdf:RDF xmlns:dc="http://purl.org/dc/elements/1.1/" xmlns:cc="http://creativecommons.org/ns#" xmlns:rdf="http://www.w3.org/1999/02/22-rdf-syntax-ns#">
   <cc:Work>
    <dc:type rdf:resource="http://purl.org/dc/dcmitype/StillImage"/>
    <dc:date>2026-09-22T02:41:21.885809</dc:date>
    <dc:format>image/svg+xml</dc:format>
    <dc:creator>
     <cc:Agent>
      <dc:title>Matplotlib v3.11.0, https://matplotlib.org/</dc:title>
     </cc:Agent>
    </dc:creator>
   </cc:Work>
  </rdf:RDF>
 </metadata>
 <defs>
  <style type="text/css">*{stroke-linejoin: round; stroke-linecap: butt}</style>
 </defs>
 <g id="figure_1">
  <g id="patch_1">
   <path d="M 0 425.19685 
L 518.740157 425.19685 
L 518.740157 0 
L 0 0 
z
" style="fill: #ffffff"/>
  </g>
  <g id="axes_1">
   <g id="patch_2">
    <path d="M 152.56063 318.897638 
L 407.67874 318.897638 
L 407.67874 63.779528 
L 152.56063 63.779528 
z
" style="fill: #ffffff"/>
   </g>
   <g id="patch_3">
    <path d="M 152.56063 318.897638 
L 348.077855 318.897638 
L 348.077855 262.689512 
L 207.843933 122.45559 
L 152.56063 122.45559 
z
" clip-path="url(#pa87918fd0b)" style="fill: #eeeeef; stroke-dasharray: 3.7,1.6; stroke-dashoffset: 0; stroke: #7a7f86; stroke-linejoin: miter"/>
   </g>
   <g id="matplotlib.axis_1">
    <g id="xtick_1">
     <g id="line2d_1">
      <defs>
       <path id="mc80551a5fb" d="M 0 0 
L 0 3.5 
" style="stroke: #000000; stroke-width: 0.8"/>
      </defs>
      <g>
       <use xlink:href="#mc80551a5fb" x="152.56063" y="318.897638" style="stroke: #000000; stroke-width: 0.8"/>
      </g>
     </g>
     <g id="text_1">
      <text style="font-size: 8px; font-family: 'Microsoft YaHei', 'Arial', 'DejaVu Sans', sans-serif; text-anchor: middle" x="152.56063" y="332.393732" transform="rotate(-0 152.56063 332.393732)">0</text>
     </g>
    </g>
    <g id="xtick_2">
     <g id="line2d_2">
      <g>
       <use xlink:href="#mc80551a5fb" x="214.784559" y="318.897638" style="stroke: #000000; stroke-width: 0.8"/>
      </g>
     </g>
     <g id="text_2">
      <text style="font-size: 8px; font-family: 'Microsoft YaHei', 'Arial', 'DejaVu Sans', sans-serif; text-anchor: middle" x="214.784559" y="332.393732" transform="rotate(-0 214.784559 332.393732)">100</text>
     </g>
    </g>
    <g id="xtick_3">
     <g id="line2d_3">
      <g>
       <use xlink:href="#mc80551a5fb" x="277.008489" y="318.897638" style="stroke: #000000; stroke-width: 0.8"/>
      </g>
     </g>
     <g id="text_3">
      <text style="font-size: 8px; font-family: 'Microsoft YaHei', 'Arial', 'DejaVu Sans', sans-serif; text-anchor: middle" x="277.008489" y="332.393732" transform="rotate(-0 277.008489 332.393732)">200</text>
     </g>
    </g>
    <g id="xtick_4">
     <g id="line2d_4">
      <g>
       <use xlink:href="#mc80551a5fb" x="339.232418" y="318.897638" style="stroke: #000000; stroke-width: 0.8"/>
      </g>
     </g>
     <g id="text_4">
      <text style="font-size: 8px; font-family: 'Microsoft YaHei', 'Arial', 'DejaVu Sans', sans-serif; text-anchor: middle" x="339.232418" y="332.393732" transform="rotate(-0 339.232418 332.393732)">300</text>
     </g>
    </g>
    <g id="xtick_5">
     <g id="line2d_5">
      <g>
       <use xlink:href="#mc80551a5fb" x="401.456347" y="318.897638" style="stroke: #000000; stroke-width: 0.8"/>
      </g>
     </g>
     <g id="text_5">
      <text style="font-size: 8px; font-family: 'Microsoft YaHei', 'Arial', 'DejaVu Sans', sans-serif; text-anchor: middle" x="401.456347" y="332.393732" transform="rotate(-0 401.456347 332.393732)">400</text>
     </g>
    </g>
    <g id="text_6">
     <text style="font-size: 10px; font-family: 'Microsoft YaHei', 'Arial', 'DejaVu Sans', sans-serif; text-anchor: middle" x="280.119685" y="346.794513" transform="rotate(-0 280.119685 346.794513)">B000025 有功负荷（kW）</text>
    </g>
   </g>
   <g id="matplotlib.axis_2">
    <g id="ytick_1">
     <g id="line2d_6">
      <defs>
       <path id="m22fbd4662c" d="M 0 0 
L -3.5 0 
" style="stroke: #000000; stroke-width: 0.8"/>
      </defs>
      <g>
       <use xlink:href="#m22fbd4662c" x="152.56063" y="318.897638" style="stroke: #000000; stroke-width: 0.8"/>
      </g>
     </g>
     <g id="text_7">
      <text style="font-size: 8px; font-family: 'Microsoft YaHei', 'Arial', 'DejaVu Sans', sans-serif; text-anchor: end" x="145.56063" y="322.145685" transform="rotate(-0 145.56063 322.145685)">0</text>
     </g>
    </g>
    <g id="ytick_2">
     <g id="line2d_7">
      <g>
       <use xlink:href="#m22fbd4662c" x="152.56063" y="256.673708" style="stroke: #000000; stroke-width: 0.8"/>
      </g>
     </g>
     <g id="text_8">
      <text style="font-size: 8px; font-family: 'Microsoft YaHei', 'Arial', 'DejaVu Sans', sans-serif; text-anchor: end" x="145.56063" y="259.921755" transform="rotate(-0 145.56063 259.921755)">100</text>
     </g>
    </g>
    <g id="ytick_3">
     <g id="line2d_8">
      <g>
       <use xlink:href="#m22fbd4662c" x="152.56063" y="194.449779" style="stroke: #000000; stroke-width: 0.8"/>
      </g>
     </g>
     <g id="text_9">
      <text style="font-size: 8px; font-family: 'Microsoft YaHei', 'Arial', 'DejaVu Sans', sans-serif; text-anchor: end" x="145.56063" y="197.697826" transform="rotate(-0 145.56063 197.697826)">200</text>
     </g>
    </g>
    <g id="ytick_4">
     <g id="line2d_9">
      <g>
       <use xlink:href="#m22fbd4662c" x="152.56063" y="132.22585" style="stroke: #000000; stroke-width: 0.8"/>
      </g>
     </g>
     <g id="text_10">
      <text style="font-size: 8px; font-family: 'Microsoft YaHei', 'Arial', 'DejaVu Sans', sans-serif; text-anchor: end" x="145.56063" y="135.473897" transform="rotate(-0 145.56063 135.473897)">300</text>
     </g>
    </g>
    <g id="ytick_5">
     <g id="line2d_10">
      <g>
       <use xlink:href="#m22fbd4662c" x="152.56063" y="70.00192" style="stroke: #000000; stroke-width: 0.8"/>
      </g>
     </g>
     <g id="text_11">
      <text style="font-size: 8px; font-family: 'Microsoft YaHei', 'Arial', 'DejaVu Sans', sans-serif; text-anchor: end" x="145.56063" y="73.249967" transform="rotate(-0 145.56063 73.249967)">400</text>
     </g>
    </g>
    <g id="text_12">
     <text style="font-size: 10px; font-family: 'Microsoft YaHei', 'Arial', 'DejaVu Sans', sans-serif; text-anchor: middle" x="124.9527" y="191.338583" transform="rotate(-90 124.9527 191.338583)">B000078 有功负荷（kW）</text>
    </g>
   </g>
   <g id="patch_4">
    <path d="M 338.763974 318.897638 
L 338.763974 261.837092 
L 306.365926 229.732632 
L 245.879196 171.885111 
L 212.386269 140.957401 
L 152.56063 140.957401 
L 152.56063 318.897638 
z
" clip-path="url(#pa87918fd0b)" style="fill: #86b6d5; stroke: #216b96; stroke-width: 1.2; stroke-linejoin: miter"/>
   </g>
   <g id="patch_5">
    <path d="M 152.56063 318.897638 
L 152.56063 63.779528 
" style="fill: none; stroke: #000000; stroke-width: 0.8; stroke-linejoin: miter; stroke-linecap: square"/>
   </g>
   <g id="patch_6">
    <path d="M 152.56063 318.897638 
L 407.67874 318.897638 
" style="fill: none; stroke: #000000; stroke-width: 0.8; stroke-linejoin: miter; stroke-linecap: square"/>
   </g>
   <g id="line2d_11">
    <path d="M 152.56063 140.882713 
L 162.814806 140.882713 
" clip-path="url(#pa87918fd0b)" style="fill: none; stroke: #216b96; stroke-width: 1.2; stroke-linecap: square"/>
   </g>
   <g id="line2d_12">
    <path d="M 152.56063 140.818287 
L 210.709839 140.818287 
" clip-path="url(#pa87918fd0b)" style="fill: none; stroke: #216b96; stroke-width: 1.2; stroke-linecap: square"/>
   </g>
   <g id="line2d_13">
    <path d="M 152.56063 140.814355 
L 211.740745 140.814355 
" clip-path="url(#pa87918fd0b)" style="fill: none; stroke: #216b96; stroke-width: 1.2; stroke-linecap: square"/>
   </g>
   <g id="line2d_14">
    <path d="M 152.56063 140.835127 
L 210.464043 140.835127 
" clip-path="url(#pa87918fd0b)" style="fill: none; stroke: #216b96; stroke-width: 1.2; stroke-linecap: square"/>
   </g>
   <g id="line2d_15">
    <path d="M 152.56063 140.850511 
L 211.726143 140.850511 
" clip-path="url(#pa87918fd0b)" style="fill: none; stroke: #216b96; stroke-width: 1.2; stroke-linecap: square"/>
   </g>
   <g id="line2d_16">
    <path d="M 152.56063 140.897411 
L 208.895401 140.897411 
" clip-path="url(#pa87918fd0b)" style="fill: none; stroke: #216b96; stroke-width: 1.2; stroke-linecap: square"/>
   </g>
   <g id="line2d_17">
    <path d="M 152.56063 140.771526 
L 210.971647 140.771526 
" clip-path="url(#pa87918fd0b)" style="fill: none; stroke: #216b96; stroke-width: 1.2; stroke-linecap: square"/>
   </g>
   <g id="line2d_18">
    <path d="M 152.56063 140.540698 
L 152.56063 140.525969 
L 152.56063 140.493703 
L 152.56063 140.478288 
L 152.56063 140.461414 
L 152.56063 140.457475 
L 152.56063 140.41456 
L 211.088703 140.41456 
L 211.135328 140.457475 
L 211.859342 140.457475 
L 212.014974 140.600807 
L 212.50616 140.600807 
L 246.066208 171.590496 
L 306.674153 229.553944 
L 339.137127 261.722743 
L 339.137127 318.897638 
L 338.745169 318.897638 
L 338.734736 318.897638 
L 338.695854 318.897638 
L 338.59642 318.897638 
L 338.555648 318.897638 
L 225.419711 318.897638 
L 162.835394 318.897638 
L 152.56063 318.897638 
L 152.56063 140.600807 
L 152.56063 140.540698 
" clip-path="url(#pa87918fd0b)" style="fill: none; stroke-dasharray: 0.7,1.155; stroke-dashoffset: 0; stroke: #216b96; stroke-width: 0.7"/>
   </g>
   <g id="text_13">
    <text style="font-size: 8px; font-family: 'Microsoft YaHei', 'Arial', 'DejaVu Sans', sans-serif; text-anchor: start" x="196.132245" y="294.022508" transform="rotate(-0 196.132245 294.022508)">原始负荷</text>
   </g>
   <g id="line2d_19">
    <path d="M 339.119347 318.897638 
L 339.119358 317.013206 
L 339.119322 315.090318 
L 339.119367 313.12778 
L 339.11934 311.124358 
L 339.119326 309.078759 
L 339.119358 306.989634 
L 339.119356 304.855583 
L 339.119354 302.67514 
L 339.119326 300.446778 
L 339.119347 298.168891 
L 339.119319 295.839822 
L 339.119344 293.457813 
L 339.119349 291.021048 
L 339.119341 288.527615 
L 339.119356 285.97551 
L 339.119347 283.362644 
L 339.119335 280.686819 
L 339.11935 277.945724 
L 339.119331 275.136955 
L 339.119359 272.257956 
L 339.119365 269.306075 
L 339.119365 266.278507 
L 339.119351 263.172306 
L 337.799048 260.401295 
L 335.345271 257.969424 
L 332.889267 255.538927 
L 330.431189 253.109897 
L 327.971142 250.682439 
L 325.509233 248.256659 
L 323.045526 245.832683 
L 320.58017 243.410598 
L 318.113271 240.990512 
L 315.644897 238.572551 
L 313.175193 236.156802 
L 310.704228 233.743393 
L 308.232187 231.332387 
L 305.759059 228.923957 
L 303.285068 226.518144 
L 300.810243 224.115098 
L 298.334766 221.714881 
L 295.858669 219.317645 
L 293.382095 216.923473 
L 290.905186 214.532447 
L 288.428011 212.144696 
L 285.950677 209.760327 
L 283.47329 207.379446 
L 280.996021 205.002103 
L 278.518908 202.628458 
L 276.04209 200.258588 
L 273.56567 197.892598 
L 271.089753 195.530591 
L 268.614473 193.172642 
L 266.139931 190.818852 
L 263.666202 188.469357 
L 261.193447 186.124195 
L 258.721737 183.783501 
L 256.251203 181.447343 
L 253.78192 179.115856 
L 251.314039 176.789073 
L 248.847636 174.467128 
L 246.382812 172.150123 
L 243.919712 169.838083 
L 241.458389 167.531182 
L 238.999011 165.229406 
L 236.541628 162.932926 
L 234.086362 160.641804 
L 231.63331 158.356136 
L 229.182606 156.075938 
L 226.734327 153.801345 
L 224.288567 151.532452 
L 221.845439 149.269312 
L 219.405037 147.012019 
L 216.967471 144.760623 
L 214.532817 142.515259 
L 211.987723 140.616358 
L 208.859969 140.616397 
L 205.813475 140.616375 
L 202.845087 140.616379 
L 199.951848 140.616391 
L 197.130948 140.616364 
L 194.379694 140.616363 
L 191.695543 140.616367 
L 189.076063 140.616406 
L 186.51896 140.616404 
L 184.022029 140.616379 
L 181.58316 140.61638 
L 179.200356 140.616392 
L 176.871712 140.616368 
L 174.59539 140.616394 
L 172.369661 140.616358 
L 170.192842 140.616379 
L 168.063349 140.616373 
L 165.97965 140.61637 
L 163.940283 140.616407 
L 161.943853 140.616409 
L 159.989014 140.616412 
L 158.074483 140.616391 
L 156.199023 140.616371 
L 154.361451 140.616368 
L 152.56063 140.616388 
" clip-path="url(#pa87918fd0b)" style="fill: none; stroke: #257b53; stroke-width: 1.5; stroke-linecap: square"/>
   </g>
   <g id="line2d_20">
    <path d="M 338.805703 318.897638 
L 338.805701 317.016374 
L 338.805716 315.096718 
L 338.805702 313.137481 
L 338.805739 311.137425 
L 338.805742 309.095263 
L 338.805746 307.009652 
L 338.805732 304.879189 
L 338.805734 302.702411 
L 338.805729 300.477793 
L 338.805739 298.203737 
L 338.805724 295.878581 
L 338.805734 293.500578 
L 338.805752 291.067907 
L 338.805736 288.578667 
L 338.805724 286.030856 
L 338.805725 283.422382 
L 338.80571 280.751055 
L 338.805715 278.01457 
L 338.805728 275.210516 
L 338.805739 272.33636 
L 338.805731 269.389446 
L 338.805721 266.366971 
L 338.805708 263.265991 
L 337.799048 260.401295 
L 335.345271 257.969424 
L 332.889267 255.538927 
L 330.431189 253.109897 
L 327.971142 250.682439 
L 325.509233 248.256659 
L 323.045526 245.832683 
L 320.58017 243.410598 
L 318.113271 240.990512 
L 315.644897 238.572551 
L 313.175193 236.156802 
L 310.704228 233.743393 
L 308.232187 231.332387 
L 305.759059 228.923957 
L 303.285068 226.518144 
L 300.810243 224.115098 
L 298.334766 221.714881 
L 295.858669 219.317645 
L 293.382095 216.923473 
L 290.905186 214.532447 
L 288.428011 212.144696 
L 285.950677 209.760327 
L 283.47329 207.379446 
L 280.996021 205.002103 
L 278.518908 202.628458 
L 276.04209 200.258588 
L 273.56567 197.892598 
L 271.089753 195.530591 
L 268.614473 193.172642 
L 266.139931 190.818852 
L 263.666202 188.469357 
L 261.193447 186.124195 
L 258.721737 183.783501 
L 256.251203 181.447343 
L 253.78192 179.115856 
L 251.314039 176.789073 
L 248.847636 174.467128 
L 246.382812 172.150123 
L 243.919712 169.838083 
L 241.458389 167.531182 
L 238.999011 165.229406 
L 236.541628 162.932926 
L 234.086362 160.641804 
L 231.63331 158.356136 
L 229.182606 156.075938 
L 226.734327 153.801345 
L 224.288567 151.532452 
L 221.845439 149.269312 
L 219.405037 147.012019 
L 216.967471 144.760623 
L 214.532817 142.515259 
L 211.727704 141.396416 
L 208.613649 141.396411 
L 205.580482 141.396393 
L 202.625077 141.396416 
L 199.74451 141.396376 
L 196.935944 141.39638 
L 194.196721 141.396407 
L 191.524317 141.396395 
L 188.916309 141.396382 
L 186.370389 141.396401 
L 183.884382 141.396377 
L 181.456177 141.396419 
L 179.083801 141.396416 
L 176.765347 141.39638 
L 174.498985 141.396402 
L 172.282992 141.39638 
L 170.115699 141.396384 
L 167.995521 141.396392 
L 165.920939 141.396383 
L 163.890496 141.396401 
L 161.902802 141.396377 
L 159.956514 141.396408 
L 158.050358 141.39642 
L 156.183104 141.396384 
L 154.353572 141.39638 
L 152.56063 141.396416 
" clip-path="url(#pa87918fd0b)" style="fill: none; stroke-dasharray: 4.07,1.76; stroke-dashoffset: 0; stroke: #d18218; stroke-width: 1.1"/>
   </g>
   <g id="PathCollection_1">
    <defs>
     <path id="m59cdca36d2" d="M 0 -4.609772 
L -1.034958 -1.424498 
L -4.384154 -1.424498 
L -1.674598 0.54411 
L -2.709556 3.729384 
L -0 1.760776 
L 2.709556 3.729384 
L 1.674598 0.54411 
L 4.384154 -1.424498 
L 1.034958 -1.424498 
z
" style="stroke: #262b32"/>
    </defs>
    <g clip-path="url(#pa87918fd0b)">
     <use xlink:href="#m59cdca36d2" x="187.132245" y="302.022508" style="fill: #262b32; stroke: #262b32"/>
    </g>
   </g>
  </g>
  <g id="text_14">
   <text style="font-size: 13px; font-family: 'Microsoft YaHei', 'Arial', 'DejaVu Sans', sans-serif; text-anchor: middle" x="259.370079" y="25.832359" transform="rotate(-0 259.370079 25.832359)">江口二维可行规划—调度域与 AC 对比</text>
  </g>
  <g id="text_15">
   <text style="font-size: 8.5px; font-family: 'Microsoft YaHei', 'Arial', 'DejaVu Sans', sans-serif; text-anchor: middle" x="259.370079" y="38.267717" transform="rotate(-0 259.370079 38.267717)">已有线路升级 · 无限预算 · 1000 kVA · 其余负荷固定为 545.45 kW</text>
  </g>
  <g id="text_16">
   <text style="font-size: 7px; font-family: 'Microsoft YaHei', 'Arial', 'DejaVu Sans', sans-serif; text-anchor: middle" x="259.370079" y="414.141732" transform="rotate(-0 259.370079 414.141732)">到达时限，保留部分结果；有效割 1373 条。AC 曲线验证一个具体建设方案，不代表全体方案的不可行证明。</text>
  </g>
  <g id="legend_1">
   <g id="patch_7">
    <path d="M 122.935704 357.731364 
L 145.335704 357.731364 
L 145.335704 352.131364 
L 122.935704 352.131364 
z
" style="fill: #86b6d5; stroke: #216b96; stroke-linejoin: miter"/>
   </g>
   <g id="text_17">
    <text style="font-size: 8px; font-family: 'Microsoft YaHei', 'Arial', 'DejaVu Sans', sans-serif; text-anchor: start" x="151.735704" y="357.731364" transform="rotate(-0 151.735704 357.731364)">切割认证内域</text>
   </g>
   <g id="patch_8">
    <path d="M 122.935704 373.657458 
L 145.335704 373.657458 
L 145.335704 368.057458 
L 122.935704 368.057458 
z
" style="fill: #eeeeef; stroke-dasharray: 3.7,1.6; stroke-dashoffset: 0; stroke: #7a7f86; stroke-linejoin: miter"/>
   </g>
   <g id="text_18">
    <text style="font-size: 8px; font-family: 'Microsoft YaHei', 'Arial', 'DejaVu Sans', sans-serif; text-anchor: start" x="151.735704" y="373.657458" transform="rotate(-0 151.735704 373.657458)">全局外界内的未确定部分</text>
   </g>
   <g id="line2d_21">
    <path d="M 122.935704 386.807302 
L 134.135704 386.807302 
L 145.335704 386.807302 
" style="fill: none; stroke-dasharray: 1,1.65; stroke-dashoffset: 0; stroke: #216b96"/>
   </g>
   <g id="text_19">
    <text style="font-size: 8px; font-family: 'Microsoft YaHei', 'Arial', 'DejaVu Sans', sans-serif; text-anchor: start" x="151.735704" y="389.607302" transform="rotate(-0 151.735704 389.607302)">已有可行证书方案的割外域</text>
   </g>
   <g id="line2d_22">
    <path d="M 260.535704 354.931364 
L 271.735704 354.931364 
L 282.935704 354.931364 
" style="fill: none; stroke: #257b53; stroke-width: 1.5; stroke-linecap: square"/>
   </g>
   <g id="text_20">
    <text style="font-size: 8px; font-family: 'Microsoft YaHei', 'Arial', 'DejaVu Sans', sans-serif; text-anchor: start" x="289.335704" y="357.731364" transform="rotate(-0 289.335704 357.731364)">AC 边界：全最大型号方案</text>
   </g>
   <g id="line2d_23">
    <path d="M 260.535704 370.936208 
L 271.735704 370.936208 
L 282.935704 370.936208 
" style="fill: none; stroke-dasharray: 4.07,1.76; stroke-dashoffset: 0; stroke: #d18218; stroke-width: 1.1"/>
   </g>
   <g id="text_21">
    <text style="font-size: 8px; font-family: 'Microsoft YaHei', 'Arial', 'DejaVu Sans', sans-serif; text-anchor: start" x="289.335704" y="373.736208" transform="rotate(-0 289.335704 373.736208)">AC 边界：另加 95% 载流约束</text>
   </g>
  </g>
 </g>
 <defs>
  <clipPath id="pa87918fd0b">
   <rect x="152.56063" y="63.779528" width="255.11811" height="255.11811"/>
  </clipPath>
 </defs>
</svg>
